<svg xmlns="http://www.w3.org/2000/svg" viewBox="0 0 512 512"><!--!Font Awesome Pro 6.7.2 by @fontawesome - https://fontawesome.com License - https://fontawesome.com/license (Commercial License) Copyright 2025 Fonticons, Inc.--><path d="M256 8C118.9 8 8 118.9 8 256c0 137.1 110.9 248 248 248 52.9 0 104.7-17.1 147.1-48.3 5.5-4.1 6.4-11.9 2.1-17.2l-5.1-6.2c-4-4.9-11.2-5.9-16.3-2.1C346.9 457.2 302 472 256 472c-119.4 0-216-96.6-216-216 0-119.4 96.6-216 216-216 118.4 0 216 80 216 200 0 72.9-52.8 108.2-116.1 108.2-19.7 0-23.7-10.8-19.5-33.9l32.1-164.1c1.4-7.4-4.2-14.3-11.8-14.3h-12.4a12 12 0 0 0 -11.8 9.7c-2.3 11.8-2.9 13.5-3.9 25.6-11.7-27.1-38.6-43-73.4-43-68 0-133.2 63-133.2 157 0 61.6 33.9 98.4 90.7 98.4 39.7 0 70.6-24.3 86.6-47-1.2 27.8 17.5 42.2 46 42.2C453.1 379 504 321.7 504 240 504 103.8 393.9 8 256 8zm-37.9 342.6c-36.7 0-58.6-25.1-58.6-67.2 0-74.7 50.8-121.5 97.2-121.5 38.9 0 58.1 27.8 58.1 65.7 0 58.1-38.4 123-96.7 123z"/></svg>