<svg xmlns="http://www.w3.org/2000/svg" viewBox="0 0 512 512"><!--!Font Awesome Pro 6.7.2 by @fontawesome - https://fontawesome.com License - https://fontawesome.com/license (Commercial License) Copyright 2025 Fonticons, Inc.--><path d="M496.7 285.7C506.6 272.8 512 256 512 235.5c0-37.7-32.1-72.6-72.7-72.6h-70.2c8.7-17.4 20.7-38.9 20.7-69.8C389.8 34.7 366.5 0 306.9 0c-30 0-41.1 37.9-46.8 67.2-3.4 17.5-6.6 34.1-16.5 44C220 134.8 184 192 162.4 203.6c-2.2 .9-5 1.6-8 2.2C148.6 197.5 138.9 192 128 192H32c-17.7 0-32 14.3-32 32v256c0 17.7 14.3 32 32 32h96c17.7 0 32-14.3 32-32v-8.7c32.5 0 100.7 40.7 177.5 40.7 5.5 0 37.7 0 41 0 59.3 0 92.3-35.9 90.3-89.8 15.1-17.7 22.5-43.3 18.2-67.1 12.5-19.5 15.1-47.1 9.6-69.4zM32 480V224h96v256H32zm424-203.6C472 288 472 336 450.4 347c13.5 22.8 1.4 53.2-15 62 8.3 52.5-19 70.6-57.2 71-3.3 0-37.2 0-40.7 0-72.9 0-134.7-40.7-177.5-40.7V235.6c37.7 0 72.3-67.9 106.2-101.8 30.5-30.5 20.4-81.5 40.7-101.8 50.9 0 50.9 35.5 50.9 61.1 0 42.2-30.5 61.1-30.5 101.8h112c22.7 0 40.6 20.4 40.7 40.7 .1 20.4-8 36.4-24 40.7zM104 432c0 13.3-10.7 24-24 24s-24-10.7-24-24 10.7-24 24-24 24 10.7 24 24z"/></svg>